<svg width="25" height="24" viewBox="0 0 25 24" fill="none" xmlns="http://www.w3.org/2000/svg">
<path d="M12.2629 16.1643C12.0122 15.9459 11.807 15.495 11.807 15.1623V3.60456C11.807 3.27202 11.535 3 11.2025 3H10.427C10.0945 3 9.82249 3.27201 9.82249 3.60456L9.82235 15.1619C9.82235 15.4947 9.609 15.9356 9.34839 16.1422C9.34839 16.1422 8.23438 17.0243 8.23438 17.8585C8.23438 19.1462 9.36755 20.1902 10.7653 20.1902C12.1629 20.1902 13.2959 19.1461 13.2959 17.8585C13.2959 17.0644 12.2629 16.1641 12.2629 16.1641L12.2629 16.1643Z" fill="#D86191"/>
<path d="M11.5561 6.35846C11.5561 6.691 11.2841 6.96302 10.9515 6.96302H10.6867C10.3542 6.96302 10.0822 6.69101 10.0822 6.35846L10.082 3.86726C10.082 3.53471 10.354 3.2627 10.6866 3.2627H10.9514C11.2839 3.2627 11.556 3.5347 11.556 3.86726L11.5561 6.35846Z" fill="#D86191"/>
<path d="M14.8267 13.6009C14.8267 14.172 14.3643 14.6345 13.7929 14.6345C13.2216 14.6345 12.7593 14.1721 12.7593 13.6009L13.779 11.7402L14.8267 13.6009Z" fill="#D86191"/>
<path d="M15.9389 15.2925C15.9355 15.624 15.6647 15.8898 15.333 15.8866C15.002 15.8837 14.7359 15.6127 14.7393 15.2811L15.3413 14.207L15.9389 15.2925Z" fill="#D86191"/>
<path d="M15.7213 12.6408C15.7195 12.8383 15.5579 12.9969 15.3605 12.9949C15.1632 12.993 15.0042 12.8315 15.0064 12.6341L15.3656 11.9937L15.7213 12.6408Z" fill="#D86191"/>
<path d="M12.2415 18.3373C12.2218 18.337 12.2389 18.3369 12.2795 18.3369C12.3196 18.3369 12.2324 18.5812 12.0853 18.8795L12.0374 18.9765C11.8906 19.2748 11.5519 19.5191 11.285 19.5191H10.7992H10.3139C10.0469 19.5191 9.70823 19.2748 9.56117 18.9765L9.51323 18.8795C9.36617 18.5812 9.27939 18.3369 9.3201 18.3369C9.36108 18.3369 9.66656 18.3369 9.99914 18.3372L11.673 18.3374C12.0052 18.3374 12.2613 18.3373 12.2415 18.3373H12.2415Z" fill="#D86191"/>
<path d="M10.5793 18.0755C10.194 18.0532 9.97364 17.929 9.77649 17.5552C9.57935 17.181 9.60306 17.0372 9.80194 16.5996L9.81413 16.6011C10.2783 16.6841 10.4092 16.7483 10.604 17.1196C10.8019 17.4932 10.7792 17.7456 10.5791 18.0752" fill="#D86191"/>
<path d="M11.0306 17.0101C10.8589 17.0003 10.7607 16.9449 10.673 16.7784C10.5853 16.612 10.5957 16.5477 10.6845 16.353L10.6896 16.3534C10.8964 16.3905 10.9548 16.4193 11.0412 16.5845C11.129 16.7507 11.119 16.8633 11.0299 17.0101" fill="#D86191"/>
<path d="M11.252 18.0753C11.0767 17.8601 11.0357 17.6824 11.1387 17.3959C11.2422 17.1096 11.3301 17.0527 11.659 16.9458L11.6637 16.9533C11.8453 17.24 11.8741 17.3408 11.7723 17.6244C11.6695 17.9107 11.524 18.0208 11.252 18.0745" fill="#D86191"/>
</svg>
