<svg width="25" height="24" viewBox="0 0 25 24" fill="none" xmlns="http://www.w3.org/2000/svg">
<path d="M8.19959 9.01014C9.21599 8.59885 9.75973 7.4693 9.34683 6.44889C8.93513 5.43249 6.17125 4 6.17125 4C6.17125 4 5.17922 6.95313 5.59065 7.96926C6.00369 8.98981 7.18024 9.4228 8.19959 9.01V9.01014Z" fill="#658ED9"/>
<path d="M12.4567 15.0289C12.4567 15.0289 11.4364 17.9036 11.8477 18.9197C12.2605 19.939 13.4342 20.3743 14.4537 19.9615C15.473 19.5489 16.0133 18.4197 15.6007 17.4004C15.1892 16.384 12.4567 15.0288 12.4567 15.0288V15.0289Z" fill="#658ED9"/>
<path d="M6.07199 13.8799C6.07199 13.8799 4.95264 16.9763 5.39578 18.071C5.84002 19.1684 7.12946 19.6477 8.22701 19.2032C9.32162 18.76 9.8347 17.5514 9.39032 16.4538C8.94687 15.3593 6.07199 13.88 6.07199 13.88V13.8799Z" fill="#658ED9"/>
<path d="M12.4327 12.9417C13.0576 12.6887 13.3059 11.952 13.0841 11.4042C12.8299 10.7762 11.2287 9.96777 11.2287 9.96777C11.2287 9.96777 10.6401 11.6628 10.8943 12.291C11.1161 12.8386 11.8059 13.1955 12.4327 12.9417H12.4327Z" fill="#658ED9"/>
<path d="M18.5665 12.6815C18.3123 12.0535 16.7111 11.2451 16.7111 11.2451C16.7111 11.2451 16.1225 12.9401 16.3767 13.5684C16.5985 14.116 17.2885 14.473 17.9151 14.2193C18.5401 13.966 18.7886 13.2293 18.5665 12.6815L18.5665 12.6815Z" fill="#658ED9"/>
<path d="M17.3443 6.63674C16.9328 5.62048 14.1688 4.18799 14.1688 4.18799C14.1688 4.18799 13.1768 7.14111 13.5882 8.15723C14.0014 9.17778 15.178 9.6105 16.1972 9.19787C17.2133 8.78672 17.7573 7.65742 17.3443 6.63663V6.63674Z" fill="#658ED9"/>
<path d="M20.0939 18.7416C19.8397 18.1136 18.2385 17.3052 18.2385 17.3052C18.2385 17.3052 17.6498 19.0002 17.904 19.6285C18.1258 20.1761 18.8157 20.533 19.4425 20.2791C20.0673 20.0261 20.3157 19.2894 20.0939 18.7416H20.0939Z" fill="#658ED9"/>
</svg>
