<svg width="48" height="48" viewBox="0 0 48 48" fill="none" xmlns="http://www.w3.org/2000/svg">
<rect width="48" height="48" rx="24" fill="url(#paint0_linear_109_109)"/>
<path d="M22.4955 15.75C18.3645 15.75 15 18.9736 15 22.9316C15 26.8897 18.3645 30.1133 22.4955 30.1133C24.2919 30.1133 25.9414 29.5021 27.2343 28.4876L31.7096 32.7755C31.7787 32.8444 31.8614 32.8995 31.953 32.9374C32.0445 32.9753 32.143 32.9953 32.2427 32.9963C32.3425 32.9973 32.4414 32.9792 32.5337 32.943C32.626 32.9069 32.7099 32.8535 32.7804 32.786C32.851 32.7184 32.9067 32.638 32.9444 32.5496C32.9821 32.4611 33.001 32.3663 33 32.2708C32.9989 32.1752 32.978 32.0808 32.9385 31.9931C32.8989 31.9054 32.8415 31.8262 32.7695 31.76L28.2942 27.472C29.353 26.2333 29.9909 24.6528 29.9909 22.9316C29.9909 18.9736 26.6265 15.75 22.4955 15.75ZM22.4955 17.1863C25.8165 17.1863 28.4919 19.7497 28.4919 22.9316C28.4919 26.1136 25.8165 28.6769 22.4955 28.6769C19.1745 28.6769 16.4991 26.1136 16.4991 22.9316C16.4991 19.7497 19.1745 17.1863 22.4955 17.1863Z" fill="white"/>
<defs>
<linearGradient id="paint0_linear_109_109" x1="-8.45175e-07" y1="4.5" x2="44.25" y2="51" gradientUnits="userSpaceOnUse">
<stop stop-color="#26CBFF"/>
<stop offset="1" stop-color="#6980FD"/>
</linearGradient>
</defs>
</svg>
