<svg width="25" height="24" viewBox="0 0 25 24" fill="none" xmlns="http://www.w3.org/2000/svg">
<path d="M4.37525 10.3758H12.0525C12.9813 10.3825 13.88 10.046 14.5759 9.43072C15.2718 8.81547 15.716 7.96487 15.8233 7.04225C15.9267 6.00603 15.5833 4.97479 14.8791 4.20751C14.18 3.43995 13.1904 3.00175 12.1522 3H10.0806C9.74735 3 9.43945 3.17786 9.27282 3.46635C9.10622 3.75497 9.10622 4.11055 9.27282 4.39916C9.43943 4.68765 9.74734 4.86552 10.0806 4.86552H12.1522C12.6772 4.86619 13.1765 5.0932 13.5224 5.48815C13.8682 5.88312 14.0273 6.40796 13.9587 6.92856C13.89 7.3752 13.6616 7.78169 13.3156 8.07243C12.9698 8.36332 12.5301 8.51855 12.0784 8.50957H4.37508C4.04187 8.50957 3.73397 8.68729 3.56735 8.97592C3.40072 9.26456 3.40074 9.61998 3.56735 9.9086C3.73395 10.1972 4.04186 10.375 4.37508 10.375L4.37525 10.3758Z" fill="#5E4FC1"/>
<path d="M21.4261 16.5295C21.3188 15.6069 20.8747 14.7564 20.179 14.1413C19.4831 13.526 18.5847 13.1893 17.6559 13.1959H11.2428C10.9095 13.1959 10.6016 13.3736 10.435 13.6622C10.2684 13.9509 10.2684 14.3064 10.435 14.5949C10.6016 14.8835 10.9095 15.0613 11.2428 15.0613H17.6813C18.133 15.0523 18.5727 15.2077 18.9185 15.4984C19.2644 15.7893 19.4929 16.1958 19.5616 16.6423C19.6302 17.1629 19.4712 17.6877 19.1253 18.0827C18.7793 18.4778 18.2801 18.7047 17.755 18.7055H15.6826C15.3494 18.7055 15.0415 18.8832 14.8749 19.1718C14.7083 19.4603 14.7083 19.8159 14.8749 20.1045C15.0415 20.3931 15.3494 20.5708 15.6826 20.5708H17.7541C18.7927 20.5699 19.7832 20.1319 20.4826 19.3643C21.1866 18.5969 21.5297 17.5656 21.4259 16.5296L21.4261 16.5295Z" fill="#5E4FC1"/>
<path d="M9.18717 14.1294C9.18704 13.8819 9.08873 13.6447 8.91396 13.4697C8.73904 13.2946 8.50184 13.1961 8.2545 13.1958H4.37508C4.04186 13.1958 3.73397 13.3735 3.56734 13.6622C3.40073 13.9508 3.40073 14.3063 3.56734 14.5948C3.73395 14.8834 4.04185 15.0612 4.37508 15.0612H8.2545C8.5016 15.0609 8.73852 14.9626 8.9133 14.788C9.08809 14.6133 9.18665 14.3765 9.18719 14.1294L9.18717 14.1294Z" fill="#5E4FC1"/>
<path d="M16.1476 10.9783C16.2271 10.9783 16.3035 10.9467 16.3597 10.8904L16.9919 10.2583H16.9917C17.8605 10.4305 18.7567 10.1415 19.3612 9.49419C19.9658 8.84691 20.1929 7.93326 19.9617 7.07824C19.9342 6.97432 19.853 6.89316 19.7491 6.86557C18.8941 6.63454 17.9804 6.86168 17.3331 7.46612C16.6858 8.07068 16.3968 8.9668 16.5691 9.83557L15.9355 10.4658C15.8498 10.5517 15.824 10.6807 15.8705 10.7928C15.917 10.9049 16.0263 10.9779 16.1476 10.978L16.1476 10.9783Z" fill="#5E4FC1"/>
<path d="M9.67378 16.3242L9.04161 15.6921C8.92389 15.5784 8.73679 15.5801 8.62106 15.6958C8.50533 15.8115 8.50374 15.9986 8.61744 16.1164L9.2492 16.7485V16.7484C9.08647 17.5851 9.34817 18.4478 9.94819 19.0531C10.5722 19.6705 11.9669 20.1948 12.6422 19.5031H12.6423C12.8731 18.6483 12.6461 17.7351 12.042 17.0879C11.4379 16.4407 10.5423 16.1515 9.67376 16.3231L9.67378 16.3242Z" fill="#5E4FC1"/>
</svg>
